<?xml version="1.0" standalone="no"?>
<!DOCTYPE svg PUBLIC "-//W3C//DTD SVG 20010904//EN"
 "http://www.w3.org/TR/2001/REC-SVG-20010904/DTD/svg10.dtd">
<svg version="1.0" xmlns="http://www.w3.org/2000/svg"
 width="700.000000pt" height="700.000000pt" viewBox="0 0 700.000000 700.000000"
 preserveAspectRatio="xMidYMid meet">
<metadata>
Created by potrace 1.11, written by Peter Selinger 2001-2013
</metadata>
<g transform="translate(0.000000,700.000000) scale(0.100000,-0.100000)"
fill="#000000" stroke="none">
<path d="M3749 6486 c-2 -2 -38 -7 -79 -10 -190 -18 -451 -83 -645 -162 -830
-340 -1396 -1063 -1530 -1953 -8 -56 -15 -118 -15 -140 l0 -38 -677 -1 c-373
0 -687 -1 -698 -1 -19 -1 -20 -6 -17 -68 8 -166 55 -354 125 -504 39 -84 102
-192 131 -227 6 -6 38 -45 71 -85 175 -212 446 -378 720 -441 102 -23 120 -26
220 -32 50 -3 96 -7 103 -9 9 -3 12 -96 12 -419 l0 -415 -730 -730 c-401 -401
-730 -733 -730 -736 0 -3 390 -4 868 -2 933 3 899 2 1148 57 481 107 943 380
1292 763 33 36 47 45 60 39 9 -5 23 -7 30 -6 6 1 17 2 22 3 6 0 19 10 30 21
l21 21 17 -20 c29 -35 73 -37 106 -6 25 23 31 25 40 13 31 -41 90 -41 123 0
11 13 16 14 20 4 6 -15 53 -39 71 -36 6 1 16 2 22 3 5 0 18 11 30 23 18 20 20
35 20 150 0 124 -1 130 -25 153 -26 27 -25 27 -187 25 -60 -1 -108 1 -108 5 0
3 20 42 44 88 149 277 260 632 281 902 11 142 3 131 98 131 97 1 256 11 277
18 8 3 34 7 58 10 23 3 51 10 62 16 11 6 20 9 20 6 0 -3 39 9 88 25 355 119
648 387 804 734 67 150 103 295 115 468 l6 87 -757 0 -756 0 0 248 0 249 1513
1 c831 0 1518 1 1525 1 21 1 14 372 -9 504 -57 328 -193 593 -423 822 -248
247 -514 381 -871 439 -74 12 -254 14 -1011 15 -506 1 -922 -1 -925 -3z"/>
</g>
</svg>
